# xmcd
#
# Track frame offsets:
#	150
#	12479
#	25043
#	39020
#	56532
#	69076
#	87161
#	98968
#	112773
#	124890
#	138850
#	157217
#
# Disc length: 2285 seconds
#
# Revision: 1
# Processed by: cddbd v1.5.2PL0 Copyright (c) Steve Scherf et al.
# Submitted via: audiograbber 1.83.01
#
DISCID=8d08eb0c
DTITLE=Justin Trevino - Take One As Needed For Pain
DYEAR=2008
DGENRE=Country
TTITLE0=When She Does Me Right
TTITLE1=I Just Lost My Favorite Girl
TTITLE2=We Don't
TTITLE3=This Time We're Going To Make It (with Heather Myles)
TTITLE4=My First Night Without You
TTITLE5=Take One As Needed For Pain
TTITLE6=Play Now Pay Later
TTITLE7=She'll Keep Bringing All Her Love To Me
TTITLE8=I'll Go Down Swinging' (with Bill Anderson)
TTITLE9=Neon Sun
TTITLE10=I Did It All On My Own
TTITLE11=Where Do You Take A Broken Heart?
EXTD=HOTR-4125\nHeart of Texas Records
EXTT0=
EXTT1=
EXTT2=
EXTT3=
EXTT4=
EXTT5=
EXTT6=
EXTT7=
EXTT8=
EXTT9=
EXTT10=
EXTT11=
PLAYORDER=
